<mxfile host="app.diagrams.net" modified="2023-09-28T16:54:11.774Z" agent="Mozilla/5.0 (Windows NT 10.0; Win64; x64) AppleWebKit/537.36 (KHTML, like Gecko) Chrome/117.0.0.0 Safari/537.36" etag="ghk86Q1xgZqkdSueuJG4" version="22.0.0" type="device">
  <diagram name="Page-1" id="LFoEJDrIkROvghh7rp6-">
    <mxGraphModel dx="898" dy="651" grid="1" gridSize="10" guides="1" tooltips="1" connect="1" arrows="1" fold="1" page="1" pageScale="1" pageWidth="827" pageHeight="1169" math="0" shadow="0">
      <root>
        <mxCell id="0" />
        <mxCell id="1" parent="0" />
        <mxCell id="md_hEC9lvGqwlU5XeiMO-130" value="" style="edgeStyle=orthogonalEdgeStyle;rounded=0;orthogonalLoop=1;jettySize=auto;html=1;" edge="1" parent="1" source="md_hEC9lvGqwlU5XeiMO-1" target="md_hEC9lvGqwlU5XeiMO-2">
          <mxGeometry relative="1" as="geometry" />
        </mxCell>
        <mxCell id="md_hEC9lvGqwlU5XeiMO-1" value="" style="ellipse;whiteSpace=wrap;html=1;aspect=fixed;" vertex="1" parent="1">
          <mxGeometry x="240" y="50" width="40" height="40" as="geometry" />
        </mxCell>
        <mxCell id="md_hEC9lvGqwlU5XeiMO-2" value="&lt;font style=&quot;font-size: 18px;&quot;&gt;t, n&lt;/font&gt;" style="shape=parallelogram;perimeter=parallelogramPerimeter;whiteSpace=wrap;html=1;fixedSize=1;" vertex="1" parent="1">
          <mxGeometry x="200" y="130" width="120" height="60" as="geometry" />
        </mxCell>
        <mxCell id="md_hEC9lvGqwlU5XeiMO-3" value="" style="endArrow=classic;html=1;rounded=0;" edge="1" parent="1">
          <mxGeometry width="50" height="50" relative="1" as="geometry">
            <mxPoint x="259.76" y="90" as="sourcePoint" />
            <mxPoint x="259.76" y="130" as="targetPoint" />
          </mxGeometry>
        </mxCell>
        <mxCell id="md_hEC9lvGqwlU5XeiMO-12" value="&lt;font style=&quot;font-size: 18px;&quot;&gt;t == 4; 6; 9; 11&lt;/font&gt;" style="rhombus;whiteSpace=wrap;html=1;" vertex="1" parent="1">
          <mxGeometry x="200" y="350" width="120" height="80" as="geometry" />
        </mxCell>
        <mxCell id="md_hEC9lvGqwlU5XeiMO-16" value="" style="endArrow=classic;html=1;rounded=0;" edge="1" parent="1">
          <mxGeometry width="50" height="50" relative="1" as="geometry">
            <mxPoint x="320" y="390" as="sourcePoint" />
            <mxPoint x="359.5" y="389.58" as="targetPoint" />
          </mxGeometry>
        </mxCell>
        <mxCell id="md_hEC9lvGqwlU5XeiMO-20" value="&lt;font size=&quot;3&quot;&gt;Đúng&lt;br&gt;&lt;/font&gt;" style="text;html=1;align=center;verticalAlign=middle;resizable=0;points=[];autosize=1;strokeColor=none;fillColor=none;" vertex="1" parent="1">
          <mxGeometry x="309" y="360" width="60" height="30" as="geometry" />
        </mxCell>
        <mxCell id="md_hEC9lvGqwlU5XeiMO-24" value="&lt;span style=&quot;font-size: 18px;&quot;&gt;(n % 4 != 0) || (n % 100 == 0 &amp;amp;&amp;amp; n % 400 != 0)&lt;br&gt;&lt;/span&gt;" style="rhombus;whiteSpace=wrap;html=1;" vertex="1" parent="1">
          <mxGeometry x="200" y="470" width="120" height="80" as="geometry" />
        </mxCell>
        <mxCell id="md_hEC9lvGqwlU5XeiMO-25" value="" style="endArrow=classic;html=1;rounded=0;exitX=1;exitY=0.5;exitDx=0;exitDy=0;" edge="1" parent="1" source="md_hEC9lvGqwlU5XeiMO-24">
          <mxGeometry width="50" height="50" relative="1" as="geometry">
            <mxPoint x="325" y="509.5799999999999" as="sourcePoint" />
            <mxPoint x="360" y="510" as="targetPoint" />
          </mxGeometry>
        </mxCell>
        <mxCell id="md_hEC9lvGqwlU5XeiMO-26" value="" style="endArrow=classic;html=1;rounded=0;" edge="1" parent="1">
          <mxGeometry width="50" height="50" relative="1" as="geometry">
            <mxPoint x="259.71" y="550" as="sourcePoint" />
            <mxPoint x="259.71" y="590" as="targetPoint" />
          </mxGeometry>
        </mxCell>
        <mxCell id="md_hEC9lvGqwlU5XeiMO-27" value="&lt;font size=&quot;3&quot;&gt;Sai&lt;/font&gt;" style="text;html=1;align=center;verticalAlign=middle;resizable=0;points=[];autosize=1;strokeColor=none;fillColor=none;" vertex="1" parent="1">
          <mxGeometry x="220" y="540" width="50" height="30" as="geometry" />
        </mxCell>
        <mxCell id="md_hEC9lvGqwlU5XeiMO-28" value="&lt;font size=&quot;3&quot;&gt;Đúng&lt;br&gt;&lt;/font&gt;" style="text;html=1;align=center;verticalAlign=middle;resizable=0;points=[];autosize=1;strokeColor=none;fillColor=none;" vertex="1" parent="1">
          <mxGeometry x="309" y="480" width="60" height="30" as="geometry" />
        </mxCell>
        <mxCell id="md_hEC9lvGqwlU5XeiMO-38" value="" style="endArrow=classic;html=1;rounded=0;" edge="1" parent="1">
          <mxGeometry width="50" height="50" relative="1" as="geometry">
            <mxPoint x="259.71" y="650" as="sourcePoint" />
            <mxPoint x="259.71" y="690" as="targetPoint" />
          </mxGeometry>
        </mxCell>
        <mxCell id="md_hEC9lvGqwlU5XeiMO-19" value="&lt;font size=&quot;3&quot;&gt;Sai&lt;/font&gt;" style="text;html=1;align=center;verticalAlign=middle;resizable=0;points=[];autosize=1;strokeColor=none;fillColor=none;" vertex="1" parent="1">
          <mxGeometry x="220" y="420" width="50" height="30" as="geometry" />
        </mxCell>
        <mxCell id="md_hEC9lvGqwlU5XeiMO-53" value="" style="endArrow=classic;html=1;rounded=0;" edge="1" parent="1">
          <mxGeometry width="50" height="50" relative="1" as="geometry">
            <mxPoint x="260.21" y="430" as="sourcePoint" />
            <mxPoint x="260.21" y="470" as="targetPoint" />
          </mxGeometry>
        </mxCell>
        <mxCell id="md_hEC9lvGqwlU5XeiMO-55" value="" style="endArrow=none;html=1;rounded=0;" edge="1" parent="1">
          <mxGeometry width="50" height="50" relative="1" as="geometry">
            <mxPoint x="520" y="710" as="sourcePoint" />
            <mxPoint x="520" y="270" as="targetPoint" />
          </mxGeometry>
        </mxCell>
        <mxCell id="md_hEC9lvGqwlU5XeiMO-56" value="" style="endArrow=classic;html=1;rounded=0;" edge="1" parent="1">
          <mxGeometry width="50" height="50" relative="1" as="geometry">
            <mxPoint x="520" y="710" as="sourcePoint" />
            <mxPoint x="275" y="709.78" as="targetPoint" />
          </mxGeometry>
        </mxCell>
        <mxCell id="md_hEC9lvGqwlU5XeiMO-60" value="" style="ellipse;whiteSpace=wrap;html=1;aspect=fixed;" vertex="1" parent="1">
          <mxGeometry x="240" y="690" width="40" height="40" as="geometry" />
        </mxCell>
        <mxCell id="md_hEC9lvGqwlU5XeiMO-61" value="" style="ellipse;whiteSpace=wrap;html=1;aspect=fixed;" vertex="1" parent="1">
          <mxGeometry x="245" y="695" width="30" height="30" as="geometry" />
        </mxCell>
        <mxCell id="md_hEC9lvGqwlU5XeiMO-83" value="&lt;font style=&quot;font-size: 18px;&quot;&gt;30&lt;br&gt;&lt;/font&gt;" style="shape=card;whiteSpace=wrap;html=1;flipH=1;flipV=1;size=20;" vertex="1" parent="1">
          <mxGeometry x="360" y="360" width="120" height="60" as="geometry" />
        </mxCell>
        <mxCell id="md_hEC9lvGqwlU5XeiMO-116" value="&lt;font style=&quot;font-size: 18px;&quot;&gt;29&lt;br&gt;&lt;/font&gt;" style="shape=card;whiteSpace=wrap;html=1;flipH=1;flipV=1;size=20;" vertex="1" parent="1">
          <mxGeometry x="200" y="590" width="120" height="60" as="geometry" />
        </mxCell>
        <mxCell id="md_hEC9lvGqwlU5XeiMO-118" value="&lt;font style=&quot;font-size: 18px;&quot;&gt;28&lt;br&gt;&lt;/font&gt;" style="shape=card;whiteSpace=wrap;html=1;flipH=1;flipV=1;size=20;" vertex="1" parent="1">
          <mxGeometry x="360" y="480" width="120" height="60" as="geometry" />
        </mxCell>
        <mxCell id="md_hEC9lvGqwlU5XeiMO-124" value="" style="endArrow=none;html=1;rounded=0;" edge="1" parent="1">
          <mxGeometry width="50" height="50" relative="1" as="geometry">
            <mxPoint x="480" y="268.75" as="sourcePoint" />
            <mxPoint x="520" y="268.75" as="targetPoint" />
          </mxGeometry>
        </mxCell>
        <mxCell id="md_hEC9lvGqwlU5XeiMO-134" value="" style="endArrow=classic;html=1;rounded=0;" edge="1" parent="1">
          <mxGeometry width="50" height="50" relative="1" as="geometry">
            <mxPoint x="259.67999999999995" y="310" as="sourcePoint" />
            <mxPoint x="259.67999999999995" y="350" as="targetPoint" />
          </mxGeometry>
        </mxCell>
        <mxCell id="md_hEC9lvGqwlU5XeiMO-153" value="&lt;font style=&quot;font-size: 18px;&quot;&gt;t == 1; 3; 5; 7; 8; 10; 12&lt;/font&gt;" style="rhombus;whiteSpace=wrap;html=1;" vertex="1" parent="1">
          <mxGeometry x="200" y="230" width="120" height="80" as="geometry" />
        </mxCell>
        <mxCell id="md_hEC9lvGqwlU5XeiMO-154" value="" style="endArrow=classic;html=1;rounded=0;" edge="1" parent="1">
          <mxGeometry width="50" height="50" relative="1" as="geometry">
            <mxPoint x="259.67999999999995" y="190" as="sourcePoint" />
            <mxPoint x="259.67999999999995" y="230" as="targetPoint" />
          </mxGeometry>
        </mxCell>
        <mxCell id="md_hEC9lvGqwlU5XeiMO-155" value="&lt;font style=&quot;font-size: 18px;&quot;&gt;31&lt;br&gt;&lt;/font&gt;" style="shape=card;whiteSpace=wrap;html=1;flipH=1;flipV=1;size=20;" vertex="1" parent="1">
          <mxGeometry x="360" y="240" width="120" height="60" as="geometry" />
        </mxCell>
        <mxCell id="md_hEC9lvGqwlU5XeiMO-156" value="" style="endArrow=classic;html=1;rounded=0;" edge="1" parent="1">
          <mxGeometry width="50" height="50" relative="1" as="geometry">
            <mxPoint x="320" y="269.70000000000005" as="sourcePoint" />
            <mxPoint x="360" y="269.70000000000005" as="targetPoint" />
          </mxGeometry>
        </mxCell>
        <mxCell id="md_hEC9lvGqwlU5XeiMO-157" value="&lt;font size=&quot;3&quot;&gt;Đúng&lt;br&gt;&lt;/font&gt;" style="text;html=1;align=center;verticalAlign=middle;resizable=0;points=[];autosize=1;strokeColor=none;fillColor=none;" vertex="1" parent="1">
          <mxGeometry x="309" y="240" width="60" height="30" as="geometry" />
        </mxCell>
        <mxCell id="md_hEC9lvGqwlU5XeiMO-158" value="&lt;font size=&quot;3&quot;&gt;Sai&lt;/font&gt;" style="text;html=1;align=center;verticalAlign=middle;resizable=0;points=[];autosize=1;strokeColor=none;fillColor=none;" vertex="1" parent="1">
          <mxGeometry x="220" y="300" width="50" height="30" as="geometry" />
        </mxCell>
        <mxCell id="md_hEC9lvGqwlU5XeiMO-159" value="" style="endArrow=none;html=1;rounded=0;" edge="1" parent="1">
          <mxGeometry width="50" height="50" relative="1" as="geometry">
            <mxPoint x="480" y="508.75" as="sourcePoint" />
            <mxPoint x="520" y="508.75" as="targetPoint" />
          </mxGeometry>
        </mxCell>
        <mxCell id="md_hEC9lvGqwlU5XeiMO-160" value="" style="endArrow=none;html=1;rounded=0;" edge="1" parent="1">
          <mxGeometry width="50" height="50" relative="1" as="geometry">
            <mxPoint x="480" y="388.75" as="sourcePoint" />
            <mxPoint x="520" y="388.75" as="targetPoint" />
          </mxGeometry>
        </mxCell>
      </root>
    </mxGraphModel>
  </diagram>
</mxfile>
